<svg xmlns="http://www.w3.org/2000/svg" width="232" height="53" fill="none"><path fill="#82B3D3" d="M0 .86h228a4 4 0 0 1 4 4v44a4 4 0 0 1-4 4H0v-52Z"/><path fill="#fff" d="M58.87 22.3h-4.9v11.56h-2.74v-14h10.38v14h-2.74V22.3Zm4.7 4.56c0-2.34.51-4.13 1.54-5.38 1.02-1.27 2.49-1.9 4.4-1.9 1 0 1.87.17 2.62.52.74.34 1.36.84 1.86 1.48.49.64.86 1.4 1.1 2.3.24.89.36 1.88.36 2.98 0 2.33-.52 4.13-1.56 5.4a5.34 5.34 0 0 1-4.38 1.88c-1.02 0-1.9-.18-2.64-.52A4.94 4.94 0 0 1 65 32.14a6.67 6.67 0 0 1-1.08-2.3c-.24-.9-.36-1.89-.36-2.98Zm2.88 0c0 .7.06 1.36.18 1.96.12.58.3 1.09.54 1.52a2.56 2.56 0 0 0 2.34 1.36 2.6 2.6 0 0 0 2.26-1.14c.53-.76.8-2 .8-3.7 0-.68-.06-1.32-.18-1.9a5.1 5.1 0 0 0-.52-1.54 2.54 2.54 0 0 0-2.36-1.4c-.98 0-1.73.39-2.26 1.18-.54.77-.8 1.99-.8 3.66Zm22.86 9.5h-1.94l-.3-2.5h-9l-.3 2.5h-1.94v-4.94h1.48c.1-.15.25-.48.46-.98.22-.51.43-1.22.64-2.14.22-.94.4-2.1.54-3.48.15-1.4.22-3.06.2-4.96h8.38v11.56h1.78v4.94Zm-4.52-4.94V22.3h-3.1a36.69 36.69 0 0 1-.58 5.84c-.29 1.5-.59 2.6-.9 3.28h4.58ZM98.5 22.3h-4.9v11.56h-2.74v-14h10.38v14H98.5V22.3Zm13.3 3.8.16-1.82h-.1l-.94 1.88-5.22 7.7h-2.06v-14h2.74v7.62l-.2 1.88h.12l.98-1.94 5.22-7.56h2.04v14h-2.74V26.1Zm14.64 7.18c-.43.3-.98.52-1.64.66-.66.13-1.33.2-2.02.2-.84 0-1.64-.13-2.4-.38a5.28 5.28 0 0 1-1.98-1.26 6.43 6.43 0 0 1-1.38-2.26 10.1 10.1 0 0 1-.5-3.38c0-1.38.18-2.52.56-3.44.38-.94.88-1.68 1.48-2.24.6-.58 1.29-.98 2.04-1.22.74-.26 1.49-.38 2.24-.38.8 0 1.47.05 2.02.16.56.1 1.02.23 1.38.38l-.54 2.32c-.31-.15-.68-.26-1.1-.32-.42-.07-.92-.1-1.52-.1-1.11 0-2 .39-2.68 1.18-.67.78-1 2-1 3.66 0 .72.08 1.38.24 1.98.16.58.4 1.09.72 1.52.33.41.74.74 1.22.98.49.22 1.06.34 1.7.34.6 0 1.1-.06 1.52-.18.4-.12.77-.28 1.08-.46l.56 2.24Zm7.7-2.52h-4.3l-1.05 3.1h-2.74l5.04-14.1h2.02l5.04 14.1h-2.88l-1.12-3.1Zm-3.6-2.2h3l-1.03-3.12-.42-2.2h-.1l-.42 2.22-1.02 3.1Zm17.2-6.26h-4.08v11.56h-2.74V22.3h-4.1v-2.44h10.92v2.44Zm1.42-2.44h2.74v5.02a5.77 5.77 0 0 1 1.38-.14c.19-.02.36-.02.52-.02.66 0 1.29.06 1.9.2.62.13 1.16.37 1.62.72.48.33.86.79 1.14 1.38.28.57.42 1.3.42 2.2 0 1.6-.5 2.8-1.5 3.62-.98.81-2.4 1.22-4.26 1.22l-.76-.02c-.3 0-.64-.02-1.02-.04a36 36 0 0 1-1.14-.1c-.37-.04-.72-.1-1.04-.18V19.86Zm4.1 11.76c.38 0 .73-.04 1.06-.1.34-.08.63-.21.88-.38.26-.19.45-.43.58-.72.15-.3.22-.66.22-1.08 0-.46-.08-.82-.24-1.1-.14-.3-.34-.52-.6-.68a2.14 2.14 0 0 0-.86-.32 6.58 6.58 0 0 0-1.38-.06l-.4.04c-.13.01-.26.03-.38.06l-.24.04v4.18c.15.04.34.07.58.1l.78.02Zm16.61 1.66c-.42.3-.97.52-1.64.66-.65.13-1.32.2-2.02.2-.84 0-1.64-.13-2.4-.38a5.3 5.3 0 0 1-1.98-1.26 6.43 6.43 0 0 1-1.38-2.26 10.1 10.1 0 0 1-.5-3.38c0-1.38.19-2.52.56-3.44.39-.94.88-1.68 1.48-2.24.62-.58 1.3-.98 2.04-1.22.75-.26 1.5-.38 2.24-.38.8 0 1.48.05 2.02.16.56.1 1.02.23 1.38.38l-.54 2.32c-.3-.15-.67-.26-1.1-.32-.41-.07-.92-.1-1.52-.1-1.1 0-2 .39-2.68 1.18-.66.78-1 2-1 3.66 0 .72.08 1.38.24 1.98.16.58.4 1.09.72 1.52.34.41.74.74 1.22.98.5.22 1.06.34 1.7.34.6 0 1.11-.06 1.52-.18.42-.12.78-.28 1.08-.46l.56 2.24Zm10.88.58H178v-5.54l-1.44.38-2.91 5.16h-3.19l2.88-4.66 1.2-.86a3.77 3.77 0 0 1-2.84-2.56 5.1 5.1 0 0 1-.24-1.62c0-.84.15-1.55.44-2.12.3-.58.7-1.04 1.22-1.38a4.97 4.97 0 0 1 1.87-.76 10.78 10.78 0 0 1 3.11-.22 21.92 21.92 0 0 1 1.83.16c.3.04.57.09.81.16v13.86Zm-3.76-11.76a5 5 0 0 0-1.03.1c-.31.06-.6.18-.84.34-.24.16-.43.38-.58.66-.13.28-.2.64-.2 1.08 0 .41.07.76.2 1.06a1.92 1.92 0 0 0 1.4 1.08c.32.08.67.12 1.05.12H178V22.2c-.14-.03-.3-.05-.46-.06a3.22 3.22 0 0 0-.55-.04Z"/></svg>