<svg xmlns="http://www.w3.org/2000/svg" width="50" height="41" fill="none"><path fill="#83B3D3" fill-rule="evenodd" d="M36.45 14.8c.17-.54 0-.94-.8-.94h-2.62c-.67 0-.98.34-1.14.73 0 0-1.34 3.2-3.23 5.27-.61.6-.89.8-1.22.8-.17 0-.42-.2-.42-.75v-5.1c0-.66-.19-.95-.74-.95h-4.13c-.42 0-.67.3-.67.59 0 .62.95.76 1.05 2.51v3.8c0 .83-.16.98-.5.98-.88 0-3.05-3.2-4.33-6.88-.25-.72-.5-1-1.17-1H13.9c-.75 0-.9.34-.9.73 0 .68.89 4.07 4.14 8.55 2.17 3.06 5.23 4.72 8.01 4.72 1.67 0 1.88-.37 1.88-1v-2.32c0-.74.16-.88.68-.88.4 0 1.06.19 2.62 1.66 1.78 1.75 2.07 2.54 3.07 2.54h2.63c.75 0 1.13-.37.91-1.1-.24-.72-1.09-1.77-2.22-3.02-.6-.71-1.53-1.48-1.8-1.86-.4-.5-.28-.71 0-1.15 0 0 3.2-4.42 3.53-5.93Z" clip-rule="evenodd"/></svg>